HIERARCHY
ROOT Hips
{
 OFFSET 0.000000 0.000000 0.000000
 CHANNELS 6 Xposition Yposition Zposition Yrotation Xrotation Zrotation
 JOINT Chest
 {
  OFFSET 0.000000 9.588913 -0.003946
  CHANNELS 3 Yrotation Xrotation Zrotation
  JOINT Chest2
  {
   OFFSET 0.000000 9.541882 0.008053
   CHANNELS 3 Yrotation Xrotation Zrotation
   JOINT Chest3
   {
    OFFSET 0.000000 9.501360 0.000000
    CHANNELS 3 Yrotation Xrotation Zrotation
    JOINT Chest4
    {
     OFFSET 0.000000 9.491660 0.000000
     CHANNELS 3 Yrotation Xrotation Zrotation
     JOINT Neck
     {
      OFFSET 0.000000 14.331917 0.000000
      CHANNELS 3 Yrotation Xrotation Zrotation
      JOINT Head
      {
       OFFSET 0.000000 8.884799 0.017034
       CHANNELS 3 Yrotation Xrotation Zrotation
       End Site
       {
        OFFSET 0.000000 16.896195 0.008993
       }
      }
     }
     JOINT RightCollar
     {
      OFFSET -2.923010 9.499495 0.000000
      CHANNELS 3 Yrotation Xrotation Zrotation
      JOINT RightShoulder
      {
       OFFSET -13.795216 0.000000 0.000000
       CHANNELS 3 Yrotation Xrotation Zrotation
       JOINT RightElbow
       {
        OFFSET -30.272209 0.000000 0.000000
        CHANNELS 3 Yrotation Xrotation Zrotation
        JOINT RightWrist
        {
         OFFSET -24.478199 0.000000 0.000000
         CHANNELS 3 Yrotation Xrotation Zrotation
         End Site
         {
          OFFSET -18.090752 0.000000 0.000000
         }
        }
       }
      }
     }
     JOINT LeftCollar
     {
      OFFSET 2.923010 9.499495 0.000000
      CHANNELS 3 Yrotation Xrotation Zrotation
      JOINT LeftShoulder
      {
       OFFSET 13.795216 0.000000 0.000000
       CHANNELS 3 Yrotation Xrotation Zrotation
       JOINT LeftElbow
       {
        OFFSET 30.272209 0.000000 0.000000
        CHANNELS 3 Yrotation Xrotation Zrotation
        JOINT LeftWrist
        {
         OFFSET 24.478199 0.000000 0.000000
         CHANNELS 3 Yrotation Xrotation Zrotation
         End Site
         {
          OFFSET 18.090752 0.000000 0.000000
         }
        }
       }
      }
     }
    }
   }
  }
 }
 JOINT RightHip
 {
  OFFSET -7.826875 0.019532 0.001973
  CHANNELS 3 Yrotation Xrotation Zrotation
  JOINT RightKnee
  {
   OFFSET 0.000000 -40.546152 -0.001885
   CHANNELS 3 Yrotation Xrotation Zrotation
   JOINT RightAnkle
   {
    OFFSET 0.000000 -39.417092 -0.003189
    CHANNELS 3 Yrotation Xrotation Zrotation
    JOINT RightToe
    {
     OFFSET 0.000000 -7.579396 17.243563
     CHANNELS 3 Yrotation Xrotation Zrotation
     End Site
     {
      OFFSET 0.000000 -1.500329 6.694466
     }
    }
   }
  }
 }
 JOINT LeftHip
 {
  OFFSET 7.826875 0.019532 0.001973
  CHANNELS 3 Yrotation Xrotation Zrotation
  JOINT LeftKnee
  {
   OFFSET 0.000000 -40.546152 -0.001885
   CHANNELS 3 Yrotation Xrotation Zrotation
   JOINT LeftAnkle
   {
    OFFSET 0.000000 -39.417092 -0.003189
    CHANNELS 3 Yrotation Xrotation Zrotation
    JOINT LeftToe
    {
     OFFSET 0.000000 -7.579396 17.243563
     CHANNELS 3 Yrotation Xrotation Zrotation
     End Site
     {
      OFFSET 0.000000 -1.500329 6.694466
     }
    }
   }
  }
 }
}
MOTION
Frames: 14
Frame Time: 0.008333
0.000000 87.345680 0.000000 0.000000 -5.767889 0.000000 0.000000 11.653876 0.000000 0.000000 -5.885988 0.000000 0.000000 -0.000000 0.000000 0.000000 -0.000000 0.000000 0.000000 12.528808 0.000000 0.000000 0.711711 0.000000 0.000000 -0.000000 0.000000 0.000000 -0.000000 0.000000 2.309063 -0.000000 0.000000 -2.309063 -0.000000 -0.000000 0.000000 -0.000000 0.000000 0.000000 0.000000 0.000000 -2.309063 0.000000 0.000000 2.309063 -0.000000 0.000000 0.000000 8.520374 0.000000 0.000000 1.905768 0.000000 -0.000000 -4.658254 0.000000 0.000000 -0.000000 0.000000 0.000000 8.520374 0.000000 0.000000 1.905768 0.000000 -0.000000 -4.658254 0.000000 0.000000 -0.000000 0.000000
3.958924 89.111345 25.876998 43.257974 -7.467634 -0.585823 -0.241033 3.466574 1.491686 -0.138973 1.981012 0.781467 -0.169516 2.476547 0.976228 -0.138973 1.981012 0.781467 3.439965 21.456090 -3.615673 4.555843 -2.660901 -4.705809 -2.180385 -1.692778 -6.474160 -3.790466 -21.408667 77.540946 91.876961 -43.118594 41.700588 22.055118 -10.357821 -22.669455 -10.896334 -4.227165 1.184120 -1.648970 -13.349220 -90.328905 -40.977966 5.857145 -38.244578 -17.072561 -2.241735 9.278994 -5.045052 9.120643 1.162812 -1.810159 3.385094 -0.033447 1.971507 -4.369441 -0.003207 -0.013311 0.155962 -0.009734 12.021788 8.289913 3.870235 -3.783533 6.609577 1.382680 -2.745103 -7.926738 -2.466112 -0.002926 -0.144940 -0.000264
3.961825 89.110956 25.879754 43.260448 -7.467067 -0.584054 -0.247278 3.467628 1.493976 -0.142372 1.981333 0.782580 -0.173758 2.476955 0.977602 -0.142372 1.981333 0.782580 3.446051 21.453681 -3.616666 4.562739 -2.663305 -4.708361 -2.165263 -1.697531 -6.476607 -3.795024 -21.416695 77.535851 91.883449 -43.121787 41.698705 22.046710 -10.361297 -22.674048 -10.879295 -4.233303 1.174301 -1.652705 -13.357443 -90.332690 -40.971576 5.857623 -38.234480 -17.072915 -2.242084 9.279861 -5.039232 9.121283 1.161010 -1.816023 3.389026 -0.032166 1.965913 -4.375420 -0.002743 -0.014071 0.156291 -0.009325 12.013971 8.288316 3.868138 -3.779555 6.617476 1.380357 -2.740461 -7.931137 -2.464707 -0.002498 -0.146463 -0.000713
3.965289 89.110488 25.882399 43.264968 -7.464571 -0.580129 -0.252109 3.468448 1.496234 -0.144933 1.981652 0.783572 -0.176954 2.477360 0.978827 -0.144933 1.981652 0.783572 3.449451 21.450662 -3.618716 4.566938 -2.666515 -4.711410 -2.156329 -1.705725 -6.478918 -3.794245 -21.422827 77.524547 91.887017 -43.126496 41.696643 22.042216 -10.364388 -22.674954 -10.867433 -4.243392 1.162112 -1.654915 -13.363783 -90.335259 -40.962663 5.856955 -38.226243 -17.073289 -2.240885 9.279725 -5.037051 9.119965 1.156585 -1.819244 3.393789 -0.031966 1.960216 -4.383399 -0.000711 -0.014848 0.157631 -0.009378 12.003627 8.285231 3.862344 -3.775087 6.625614 1.379601 -2.737271 -7.935209 -2.463463 -0.002344 -0.148248 -0.001311
3.969330 89.110044 25.885226 43.269933 -7.462512 -0.575164 -0.254602 3.470008 1.498156 -0.146290 1.982626 0.784607 -0.178643 2.478580 0.980113 -0.146290 1.982626 0.784606 3.450938 21.447256 -3.619801 4.568797 -2.670346 -4.712925 -2.151712 -1.717277 -6.479949 -3.787500 -21.428047 77.507020 91.893900 -43.130520 41.686062 22.041308 -10.369319 -22.672409 -10.864997 -4.257474 1.150410 -1.643535 -13.366970 -90.341230 -40.955084 5.863865 -38.227037 -17.073305 -2.240723 9.278794 -5.037105 9.120066 1.150206 -1.818651 3.397402 -0.032296 1.955497 -4.391738 0.002496 -0.015380 0.159262 -0.009614 11.991622 8.283121 3.855802 -3.770713 6.633734 1.377921 -2.734248 -7.938894 -2.460900 -0.002745 -0.150316 -0.002402
3.973717 89.109697 25.888507 43.275268 -7.461941 -0.571309 -0.255271 3.473535 1.500461 -0.146831 1.984973 0.785875 -0.179307 2.481516 0.981696 -0.146831 1.984973 0.785875 3.451353 21.442374 -3.618392 4.568853 -2.676116 -4.711420 -2.148062 -1.732879 -6.481705 -3.779713 -21.433138 77.488253 91.907266 -43.132242 41.667363 22.040662 -10.377986 -22.670800 -10.870137 -4.276446 1.142625 -1.618534 -13.366753 -90.353285 -40.952080 5.880830 -38.237065 -17.073305 -2.242165 9.278804 -5.038517 9.122917 1.144446 -1.815030 3.399347 -0.033949 1.953635 -4.398701 0.006010 -0.015764 0.160016 -0.009093 11.980388 8.283985 3.850988 -3.768285 6.638967 1.376288 -2.730835 -7.941750 -2.458272 -0.002977 -0.151783 -0.003542
3.978301 89.109469 25.892209 43.278424 -7.462513 -0.568598 -0.253922 3.478569 1.503052 -0.146187 1.988243 0.786848 -0.178489 2.485602 0.982914 -0.146187 1.988243 0.786848 3.451504 21.436370 -3.613597 4.567778 -2.683415 -4.706118 -2.147122 -1.751248 -6.484155 -3.776465 -21.438019 77.473605 91.918017 -43.133926 41.654069 22.039506 -10.384889 -22.671842 -10.878943 -4.297270 1.140779 -1.598543 -13.366983 -90.369820 -40.950570 5.898006 -38.242694 -17.074429 -2.243486 9.282380 -5.040241 9.127643 1.140376 -1.811389 3.400068 -0.037418 1.955507 -4.404113 0.009799 -0.015769 0.160033 -0.008238 11.974270 8.288246 3.848635 -3.766738 6.639667 1.374914 -2.729364 -7.943824 -2.456517 -0.002973 -0.152411 -0.004039
3.982927 89.109362 25.896450 43.279692 -7.464174 -0.567905 -0.251403 3.484042 1.505576 -0.144723 1.991529 0.787515 -0.176649 2.489707 0.983755 -0.144723 1.991529 0.787515 3.451876 21.430421 -3.605512 4.566141 -2.690834 -4.697256 -2.148795 -1.766857 -6.486613 -3.778276 -21.442869 77.465669 91.924002 -43.136548 41.650958 22.037659 -10.388197 -22.670151 -10.888688 -4.314602 1.143456 -1.590440 -13.369942 -90.384528 -40.949469 5.910252 -38.241121 -17.076407 -2.246261 9.287656 -5.042670 9.134354 1.139715 -1.808267 3.399364 -0.042390 1.956928 -4.407458 0.013855 -0.015484 0.159173 -0.007771 11.973438 8.294330 3.849688 -3.765171 6.638410 1.373697 -2.730759 -7.946404 -2.455374 -0.003017 -0.152484 -0.004153
3.987386 89.109336 25.901223 43.280717 -7.465910 -0.569867 -0.248292 3.489079 1.508403 -0.142858 1.994279 0.788611 -0.174306 2.493141 0.985135 -0.142858 1.994279 0.788611 3.451872 21.425250 -3.595466 4.563621 -2.697480 -4.686158 -2.152344 -1.776384 -6.490758 -3.781069 -21.448289 77.465416 91.930112 -43.136350 41.651701 22.037177 -10.391589 -22.665356 -10.897367 -4.328115 1.145640 -1.594805 -13.374739 -90.390506 -40.947021 5.914060 -38.237798 -17.081121 -2.249000 9.293503 -5.043367 9.141191 1.142692 -1.807840 3.399030 -0.046909 1.956425 -4.409371 0.017158 -0.015146 0.157386 -0.007597 11.976165 8.299983 3.854204 -3.764504 6.637047 1.372595 -2.733678 -7.949683 -2.454710 -0.002885 -0.152234 -0.004084
3.991453 89.109276 25.905875 43.281805 -7.463924 -0.572314 -0.245264 3.491926 1.511136 -0.141014 1.995576 0.790023 -0.171989 2.494759 0.986910 -0.141014 1.995576 0.790023 3.452016 21.422053 -3.584943 4.561170 -2.701837 -4.674598 -2.156729 -1.781361 -6.495781 -3.779632 -21.455059 77.467269 91.937787 -43.133905 41.648973 22.036910 -10.395776 -22.660463 -10.902121 -4.340060 1.143370 -1.612769 -13.378542 -90.387138 -40.942995 5.908197 -38.234537 -17.086545 -2.249477 9.301087 -5.042696 9.143432 1.145742 -1.810476 3.400097 -0.048984 1.956686 -4.411490 0.019325 -0.014812 0.155950 -0.007765 11.979501 8.301577 3.858984 -3.763749 6.635603 1.370492 -2.736837 -7.952738 -2.453666 -0.002716 -0.151794 -0.003911
3.995132 89.109105 25.909895 43.282824 -7.456203 -0.572640 -0.243193 3.491515 1.512967 -0.139761 1.994923 0.790810 -0.170421 2.493940 0.987902 -0.139761 1.994923 0.790810 3.452731 21.421709 -3.574435 4.559382 -2.702820 -4.663229 -2.157373 -1.782948 -6.499568 -3.777398 -21.461690 77.465175 91.949525 -43.133783 41.639866 22.032786 -10.401332 -22.657132 -10.902785 -4.349947 1.137571 -1.636895 -13.380750 -90.378252 -40.938417 5.895725 -38.228988 -17.085531 -2.248135 9.303250 -5.043198 9.139092 1.146358 -1.813011 3.401790 -0.050408 1.958659 -4.414439 0.021848 -0.014778 0.155826 -0.008279 11.981557 8.298018 3.860195 -3.763690 6.633166 1.368111 -2.738485 -7.954581 -2.452751 -0.002605 -0.151436 -0.003497
3.998747 89.108856 25.913459 43.283455 -7.445316 -0.569812 -0.241569 3.488706 1.513390 -0.138785 1.993045 0.790419 -0.169207 2.491591 0.987418 -0.138785 1.993045 0.790419 3.453763 21.424395 -3.563024 4.557755 -2.700297 -4.650982 -2.155262 -1.781654 -6.501324 -3.777800 -21.466460 77.461307 91.963652 -43.136043 41.629313 22.026274 -10.405082 -22.655796 -10.904454 -4.356445 1.131974 -1.656617 -13.382606 -90.367083 -40.933638 5.882029 -38.222400 -17.078699 -2.244404 9.298704 -5.045094 9.130655 1.144324 -1.813285 3.404514 -0.053217 1.960246 -4.418874 0.025307 -0.014940 0.157039 -0.008692 11.982528 8.292300 3.856155 -3.765756 6.629790 1.368422 -2.738220 -7.954862 -2.454203 -0.002387 -0.151844 -0.002453
4.002504 89.108598 25.917124 43.286144 -7.435089 -0.565517 -0.240974 3.485495 1.512756 -0.138408 1.991127 0.789412 -0.168744 2.489191 0.986162 -0.138408 1.991127 0.789412 3.456083 21.429506 -3.551212 4.557472 -2.694885 -4.638638 -2.155923 -1.781184 -6.501872 -3.777330 -21.468982 77.458301 91.975872 -43.138772 41.621898 22.021014 -10.405194 -22.654361 -10.909413 -4.360853 1.127443 -1.664667 -13.382818 -90.355176 -40.932040 5.873614 -38.222017 -17.071882 -2.238074 9.292107 -5.049649 9.123799 1.140804 -1.812280 3.405892 -0.056465 1.960513 -4.423497 0.028632 -0.014987 0.158798 -0.008768 11.980499 8.285454 3.849425 -3.768763 6.630543 1.370830 -2.737266 -7.955622 -2.458079 -0.001953 -0.153310 -0.000583
4.006278 89.108352 25.921226 43.292730 -7.426885 -0.562216 -0.242558 3.482552 1.512151 -0.139275 1.989684 0.788430 -0.169837 2.487390 0.984930 -0.139275 1.989684 0.788430 3.459778 21.436347 -3.540234 4.558922 -2.687319 -4.627569 -2.159248 -1.784155 -6.502547 -3.775619 -21.469975 77.456842 91.985529 -43.140872 41.617111 22.014604 -10.405250 -22.650469 -10.913049 -4.365332 1.123236 -1.664071 -13.381428 -90.344651 -40.933536 5.872063 -38.228539 -17.067021 -2.233091 9.282920 -5.056943 9.122012 1.137153 -1.809515 3.402424 -0.058439 1.960256 -4.425982 0.030197 -0.014276 0.160317 -0.007776 11.974699 8.277794 3.844156 -3.772522 6.636315 1.372717 -2.737135 -7.958176 -2.462649 -0.001275 -0.154844 0.001557
